<svg data-v-fde0c5aa="" xmlns="http://www.w3.org/2000/svg" viewBox="0 0 300 300" class="iconAboveSlogan"><!----><defs data-v-fde0c5aa=""><!----></defs><rect data-v-fde0c5aa="" fill="transparent" x="0" y="0" width="300px" height="300px" class="logo-background-square"></rect><defs data-v-fde0c5aa=""><!----></defs><g data-v-fde0c5aa="" id="e4809d29-ecc9-486b-8834-25a84baeee4e" fill="#000000" transform="matrix(2.59093158132744,0,0,2.59093158132744,17.719980220786375,143.10544169038485)"><path d="M0.88 5.69L12.69 5.69L12.69 6.78L7.44 6.78L7.44 16.19L6.13 16.19L6.13 6.78L0.88 6.78L0.88 5.69ZM15.53 16.34L15.53 16.34Q14.22 16.34 13.30 16.16Q12.39 15.98 11.81 15.53Q11.24 15.09 10.98 14.34Q10.72 13.60 10.72 12.47L10.72 12.47Q10.72 11.18 10.98 10.33Q11.24 9.49 11.81 8.99Q12.39 8.49 13.30 8.29Q14.22 8.09 15.53 8.09L15.53 8.09Q16.47 8.09 17.15 8.23Q17.84 8.37 18.33 8.63Q18.82 8.89 19.12 9.26Q19.43 9.63 19.60 10.03Q19.78 10.44 19.84 10.99Q19.91 11.53 19.91 12.14L19.91 12.14L19.80 12.58L12.03 12.58Q12.03 13.48 12.21 14.06Q12.39 14.64 12.80 14.90Q13.21 15.17 13.88 15.24Q14.55 15.31 15.53 15.31L15.53 15.31Q16.43 15.31 17.02 15.26Q17.62 15.21 17.96 15.07Q18.31 14.92 18.45 14.67Q18.59 14.41 18.59 14L18.59 14L19.91 14Q19.91 14.64 19.68 15.08Q19.46 15.53 18.95 15.81Q18.44 16.08 17.60 16.21Q16.76 16.34 15.53 16.34ZM15.53 9.19L15.53 9.19Q14.88 9.19 14.36 9.21Q13.84 9.24 13.46 9.33Q13.07 9.43 12.80 9.60Q12.52 9.78 12.36 10.01Q12.19 10.25 12.11 10.67Q12.03 11.10 12.03 11.70L12.03 11.70L18.59 11.70Q18.59 10.90 18.42 10.45Q18.25 9.99 17.88 9.70Q17.51 9.41 16.93 9.30Q16.35 9.19 15.53 9.19ZM21.44 12.26L21.44 12.26Q21.44 11.44 21.52 10.81Q21.60 10.19 21.81 9.72Q22.02 9.26 22.37 8.94Q22.72 8.63 23.26 8.44Q23.80 8.25 24.53 8.17Q25.27 8.09 26.26 8.09L26.26 8.09Q27.57 8.09 28.42 8.25Q29.26 8.41 29.76 8.74Q30.25 9.07 30.44 9.58Q30.63 10.09 30.63 10.79L30.63 10.79L29.32 10.79Q29.32 10.54 29.31 10.32Q29.29 10.10 29.21 9.93Q29.12 9.75 28.94 9.61Q28.75 9.47 28.41 9.37Q28.07 9.28 27.55 9.23Q27.02 9.18 26.26 9.18L26.26 9.18Q25.38 9.18 24.78 9.24Q24.19 9.30 23.80 9.44Q23.41 9.58 23.19 9.82Q22.98 10.06 22.89 10.40Q22.79 10.74 22.77 11.20Q22.76 11.66 22.76 12.26L22.76 12.26Q22.76 12.85 22.77 13.31Q22.79 13.76 22.89 14.10Q22.98 14.44 23.19 14.67Q23.41 14.90 23.80 15.05Q24.19 15.19 24.78 15.25Q25.38 15.31 26.26 15.31L26.26 15.31Q27.02 15.31 27.55 15.26Q28.07 15.20 28.41 15.10Q28.75 15.00 28.94 14.85Q29.12 14.70 29.21 14.50Q29.29 14.31 29.31 14.07Q29.32 13.84 29.32 13.56L29.32 13.56L30.63 13.56Q30.63 14.28 30.44 14.81Q30.25 15.33 29.76 15.67Q29.26 16.01 28.42 16.17Q27.57 16.34 26.26 16.34L26.26 16.34Q25.27 16.34 24.53 16.26Q23.80 16.17 23.26 15.99Q22.72 15.80 22.37 15.49Q22.02 15.18 21.81 14.73Q21.60 14.28 21.52 13.67Q21.44 13.06 21.44 12.26ZM41.57 16.19L40.26 16.19L40.26 11.74Q40.26 11.03 40.15 10.54Q40.04 10.06 39.71 9.75Q39.38 9.45 38.78 9.32Q38.18 9.19 37.19 9.19L37.19 9.19Q36.13 9.19 35.45 9.34Q34.77 9.50 34.38 9.77Q33.99 10.05 33.84 10.44Q33.69 10.83 33.69 11.31L33.69 11.31L33.69 16.19L32.38 16.19L32.38 5.69L33.69 5.69L33.69 9.56Q33.83 9.24 34.08 9.00Q34.34 8.77 34.67 8.61Q35 8.44 35.38 8.34Q35.77 8.24 36.16 8.19Q36.55 8.13 36.93 8.11Q37.31 8.09 37.63 8.09L37.63 8.09Q38.51 8.09 39.14 8.20Q39.77 8.31 40.21 8.51Q40.65 8.72 40.92 9.03Q41.19 9.34 41.33 9.74Q41.48 10.15 41.53 10.65Q41.58 11.16 41.58 11.74L41.58 11.74L41.57 16.19ZM51.64 10.28L53.44 10.28Q54.52 10.28 55.30 10.37Q56.07 10.46 56.60 10.63Q57.13 10.81 57.44 11.07Q57.76 11.33 57.93 11.66Q58.10 11.99 58.15 12.40Q58.20 12.81 58.20 13.29L58.20 13.29Q58.20 13.77 58.12 14.19Q58.03 14.61 57.81 14.96Q57.59 15.31 57.22 15.58Q56.84 15.85 56.26 16.04Q55.68 16.24 54.86 16.33Q54.04 16.43 52.95 16.43L52.95 16.43L51.20 16.43Q50.22 16.43 49.48 16.36Q48.74 16.28 48.21 16.13Q47.67 15.98 47.33 15.74Q46.98 15.50 46.77 15.19Q46.56 14.87 46.48 14.46Q46.40 14.05 46.40 13.56L46.40 13.56L47.71 13.56Q47.71 14.18 47.89 14.53Q48.06 14.88 48.47 15.05Q48.88 15.22 49.55 15.27Q50.22 15.31 51.20 15.31L51.20 15.31L52.95 15.31Q54.10 15.31 54.86 15.20Q55.62 15.09 56.07 14.85Q56.52 14.62 56.70 14.23Q56.89 13.84 56.89 13.29L56.89 13.29Q56.89 12.74 56.76 12.37Q56.64 12.00 56.26 11.78Q55.89 11.56 55.21 11.47Q54.54 11.38 53.44 11.38L53.44 11.38L51.64 11.38Q50.44 11.38 49.58 11.29Q48.72 11.20 48.14 11.03Q47.56 10.86 47.21 10.61Q46.86 10.36 46.68 10.04Q46.50 9.72 46.44 9.33Q46.39 8.93 46.39 8.48L46.39 8.48Q46.39 8.00 46.47 7.59Q46.56 7.18 46.79 6.85Q47.02 6.51 47.43 6.25Q47.83 6.00 48.46 5.82Q49.10 5.65 49.98 5.56Q50.87 5.47 52.08 5.47L52.08 5.47L53.39 5.47Q54.37 5.47 55.11 5.54Q55.85 5.61 56.38 5.77Q56.92 5.92 57.27 6.15Q57.62 6.38 57.83 6.70Q58.04 7.01 58.12 7.42Q58.20 7.82 58.20 8.31L58.20 8.31L56.89 8.31Q56.89 7.70 56.71 7.35Q56.53 7 56.12 6.83Q55.71 6.65 55.04 6.61Q54.37 6.56 53.39 6.56L53.39 6.56L52.08 6.56Q50.76 6.56 49.92 6.65Q49.07 6.75 48.58 6.97Q48.08 7.18 47.89 7.55Q47.70 7.92 47.70 8.48L47.70 8.48Q47.70 8.82 47.75 9.08Q47.80 9.35 47.94 9.55Q48.09 9.75 48.36 9.89Q48.62 10.03 49.06 10.12Q49.50 10.21 50.13 10.24Q50.76 10.28 51.64 10.28L51.64 10.28ZM67.79 16.19L67.79 15.11Q67.77 15.19 67.48 15.52L67.48 15.52Q67.28 15.76 66.94 15.95Q66.60 16.14 66.02 16.25Q65.45 16.35 64.52 16.35L64.52 16.35Q63.29 16.35 62.41 16.23Q61.54 16.10 60.98 15.84Q60.43 15.57 60.17 15.16Q59.92 14.75 59.92 14.18L59.92 14.18Q59.92 13.59 60.06 13.18Q60.20 12.76 60.47 12.48Q60.74 12.20 61.12 12.04Q61.50 11.89 61.99 11.81Q62.48 11.72 63.06 11.70Q63.64 11.68 64.30 11.68L64.30 11.68Q65.24 11.68 65.86 11.76Q66.49 11.84 66.89 11.96Q67.29 12.08 67.50 12.22Q67.70 12.35 67.79 12.47L67.79 12.47Q67.79 11.70 67.73 11.16Q67.66 10.62 67.52 10.26Q67.37 9.90 67.14 9.68Q66.90 9.47 66.56 9.36Q66.23 9.25 65.78 9.22Q65.32 9.19 64.74 9.19L64.74 9.19Q63.84 9.19 63.25 9.23Q62.65 9.28 62.30 9.41Q61.95 9.54 61.81 9.77Q61.67 9.99 61.67 10.36L61.67 10.36L60.35 10.36Q60.35 9.74 60.58 9.31Q60.80 8.88 61.31 8.61Q61.83 8.34 62.67 8.22Q63.51 8.09 64.74 8.09L64.74 8.09Q65.95 8.09 66.78 8.29Q67.61 8.49 68.13 8.99Q68.65 9.49 68.88 10.33Q69.10 11.18 69.10 12.47L69.10 12.47L69.10 16.19L67.79 16.19ZM64.74 15.31L64.74 15.31Q65.61 15.31 66.20 15.23Q66.78 15.15 67.14 14.98Q67.49 14.82 67.64 14.57Q67.79 14.33 67.79 14L67.79 14Q67.79 13.67 67.62 13.44Q67.44 13.21 67.04 13.07Q66.63 12.93 65.96 12.86Q65.29 12.80 64.31 12.80L64.31 12.80Q63.32 12.80 62.72 12.83Q62.11 12.87 61.78 12.99Q61.46 13.11 61.34 13.35Q61.23 13.59 61.23 14L61.23 14Q61.23 14.41 61.35 14.67Q61.47 14.92 61.84 15.07Q62.21 15.21 62.90 15.26Q63.59 15.31 64.74 15.31ZM80.04 16.19L78.73 16.19L78.73 11.74Q78.73 11.03 78.62 10.54Q78.51 10.06 78.18 9.75Q77.85 9.45 77.25 9.32Q76.65 9.19 75.67 9.19L75.67 9.19Q74.60 9.19 73.92 9.34Q73.24 9.50 72.85 9.77Q72.46 10.05 72.31 10.44Q72.17 10.83 72.17 11.31L72.17 11.31L72.17 16.19L70.85 16.19L70.85 5.69L72.17 5.69L72.17 9.56Q72.30 9.24 72.56 9.00Q72.81 8.77 73.14 8.61Q73.47 8.44 73.86 8.34Q74.24 8.24 74.63 8.19Q75.02 8.13 75.40 8.11Q75.78 8.09 76.10 8.09L76.10 8.09Q76.98 8.09 77.61 8.20Q78.24 8.31 78.69 8.51Q79.13 8.72 79.39 9.03Q79.66 9.34 79.81 9.74Q79.95 10.15 80.00 10.65Q80.05 11.16 80.05 11.74L80.05 11.74L80.04 16.19ZM81.36 8.31L85.52 16.19L85.96 16.19Q85.85 16.41 85.76 16.60Q85.67 16.80 85.55 16.97Q85.43 17.14 85.24 17.28Q85.06 17.42 84.76 17.52Q84.45 17.62 84 17.67Q83.55 17.72 82.89 17.72L82.89 17.72L82.89 18.81Q83.66 18.81 84.22 18.74Q84.78 18.67 85.19 18.54Q85.59 18.40 85.87 18.21Q86.15 18.02 86.36 17.78Q86.56 17.53 86.72 17.24Q86.88 16.95 87.05 16.63L87.05 16.63L87.27 16.19L91.21 8.31L89.67 8.31L86.39 15.31L82.89 8.31L81.36 8.31ZM99.92 16.19L99.92 15.11Q99.90 15.19 99.61 15.52L99.61 15.52Q99.41 15.76 99.07 15.95Q98.72 16.14 98.15 16.25Q97.58 16.35 96.65 16.35L96.65 16.35Q95.42 16.35 94.54 16.23Q93.67 16.10 93.11 15.84Q92.56 15.57 92.30 15.16Q92.05 14.75 92.05 14.18L92.05 14.18Q92.05 13.59 92.19 13.18Q92.33 12.76 92.60 12.48Q92.87 12.20 93.25 12.04Q93.63 11.89 94.12 11.81Q94.61 11.72 95.19 11.70Q95.77 11.68 96.43 11.68L96.43 11.68Q97.36 11.68 97.99 11.76Q98.62 11.84 99.02 11.96Q99.42 12.08 99.63 12.22Q99.83 12.35 99.92 12.47L99.92 12.47Q99.92 11.70 99.86 11.16Q99.79 10.62 99.64 10.26Q99.50 9.90 99.26 9.68Q99.03 9.47 98.69 9.36Q98.36 9.25 97.90 9.22Q97.45 9.19 96.87 9.19L96.87 9.19Q95.97 9.19 95.38 9.23Q94.78 9.28 94.43 9.41Q94.08 9.54 93.94 9.77Q93.80 9.99 93.80 10.36L93.80 10.36L92.48 10.36Q92.48 9.74 92.71 9.31Q92.93 8.88 93.44 8.61Q93.96 8.34 94.80 8.22Q95.64 8.09 96.87 8.09L96.87 8.09Q98.08 8.09 98.91 8.29Q99.74 8.49 100.26 8.99Q100.78 9.49 101.00 10.33Q101.23 11.18 101.23 12.47L101.23 12.47L101.23 16.19L99.92 16.19ZM96.87 15.31L96.87 15.31Q97.74 15.31 98.32 15.23Q98.91 15.15 99.26 14.98Q99.62 14.82 99.77 14.57Q99.92 14.33 99.92 14L99.92 14Q99.92 13.67 99.75 13.44Q99.57 13.21 99.17 13.07Q98.76 12.93 98.09 12.86Q97.42 12.80 96.43 12.80L96.43 12.80Q95.45 12.80 94.85 12.83Q94.24 12.87 93.91 12.99Q93.58 13.11 93.47 13.35Q93.36 13.59 93.36 14L93.36 14Q93.36 14.41 93.48 14.67Q93.60 14.92 93.97 15.07Q94.34 15.21 95.03 15.26Q95.72 15.31 96.87 15.31Z"></path></g><defs data-v-fde0c5aa=""><linearGradient data-v-fde0c5aa="" gradientTransform="rotate(25)" id="d25505b3-6466-47dd-8a9a-821d2abba634" x1="0%" y1="0%" x2="100%" y2="0%"><stop data-v-fde0c5aa="" offset="0%" stop-color="#968ABF" stop-opacity="1"></stop><stop data-v-fde0c5aa="" offset="100%" stop-color="#E4A8AA" stop-opacity="1"></stop></linearGradient></defs><g data-v-fde0c5aa="" id="da47d614-b64b-4693-ba78-8d256cbafa7d" stroke="none" fill="url(#d25505b3-6466-47dd-8a9a-821d2abba634)" transform="matrix(2.410252876788607,0,0,2.410252876788607,111.43595397138229,78.13454184471841)"><path d="M16 19.586l7.496-12.954H8.504zM7.496 12.414L0 25.368h14.992zM24.504 12.414l-7.496 12.954H32z"></path></g><defs data-v-fde0c5aa=""><!----></defs><g data-v-fde0c5aa="" id="d10952e7-f068-4edd-a03a-b908e30ba01b" fill="#000000" transform="matrix(0.42568984831481443,0,0,0.42568984831481443,52.01897047343412,200.94691594603555)"><path d="M2.18 2.21L1.13 2.21L1.13 11.48L2.18 11.48ZM18.40 2.21L18.40 10.01L12.67 2.21L11.45 2.21L11.45 11.48L12.50 11.48L12.50 3.65L18.23 11.48L19.45 11.48L19.45 2.21ZM35.66 2.21L35.66 10.01L29.93 2.21L28.71 2.21L28.71 11.48L29.76 11.48L29.76 3.65L35.49 11.48L36.71 11.48L36.71 2.21ZM50.09 2.10C47.28 2.10 45.39 4.21 45.39 6.85C45.39 9.48 47.28 11.59 50.09 11.59C52.91 11.59 54.80 9.48 54.80 6.85C54.80 4.21 52.91 2.10 50.09 2.10ZM50.09 10.57C47.84 10.57 46.44 8.93 46.44 6.85C46.44 4.76 47.84 3.12 50.09 3.12C52.35 3.12 53.75 4.76 53.75 6.85C53.75 8.93 52.35 10.57 50.09 10.57ZM69.78 2.21L66.57 10.29L63.36 2.21L62.22 2.21L65.97 11.48L67.17 11.48L70.92 2.21ZM82.66 2.21L81.34 2.21L77.41 11.48L78.57 11.48L79.70 8.79L84.29 8.79L85.43 11.48L86.59 11.48ZM80.11 7.83L82.00 3.30L83.89 7.83ZM100.52 2.21L93.00 2.21L93.00 3.22L96.24 3.22L96.24 11.48L97.29 11.48L97.29 3.22L100.52 3.22ZM115.67 3.22L115.67 2.21L108.85 2.21L108.85 11.48L115.67 11.48L115.67 10.47L109.90 10.47L109.90 7.35L115.05 7.35L115.05 6.33L109.90 6.33L109.90 3.22ZM123.97 10.05L123.97 11.48L125.33 11.48L125.33 10.05ZM145.24 2.21L144.19 2.21L144.19 11.48L145.24 11.48ZM161.45 2.21L161.45 10.01L155.72 2.21L154.50 2.21L154.50 11.48L155.55 11.48L155.55 3.65L161.28 11.48L162.50 11.48L162.50 2.21ZM178.35 2.21L170.83 2.21L170.83 3.22L174.06 3.22L174.06 11.48L175.11 11.48L175.11 3.22L178.35 3.22ZM193.49 3.22L193.49 2.21L186.68 2.21L186.68 11.48L193.49 11.48L193.49 10.47L187.73 10.47L187.73 7.35L192.88 7.35L192.88 6.33L187.73 6.33L187.73 3.22ZM206.00 2.10C203.21 2.10 201.43 4.21 201.43 6.85C201.43 9.48 203.14 11.59 205.97 11.59C207.65 11.59 208.74 10.74 209.33 9.84L209.33 11.48L210.29 11.48L210.29 6.55L205.94 6.55L205.94 7.50L209.33 7.50C209.33 9.44 207.73 10.57 206.05 10.57C203.80 10.57 202.48 8.93 202.48 6.85C202.48 4.76 203.83 3.12 206.08 3.12C207.49 3.12 208.50 3.74 209.06 4.73L210.21 4.73C209.52 3.18 207.98 2.10 206.00 2.10ZM220.19 7.92L223.41 7.92L225.65 11.48L226.90 11.48L224.46 7.74C225.50 7.50 226.70 6.90 226.70 5.11C226.70 3.35 225.48 2.21 223.58 2.21L219.14 2.21L219.14 11.48L220.19 11.48ZM220.19 3.21L223.45 3.21C224.77 3.21 225.65 3.93 225.65 5.11C225.65 6.55 224.39 6.93 223.40 6.93L220.19 6.93ZM239.67 2.21L238.35 2.21L234.42 11.48L235.58 11.48L236.71 8.79L241.30 8.79L242.44 11.48L243.60 11.48ZM237.12 7.83L239.01 3.30L240.90 7.83ZM257.53 2.21L250.01 2.21L250.01 3.22L253.25 3.22L253.25 11.48L254.30 11.48L254.30 3.22L257.53 3.22ZM272.68 3.22L272.68 2.21L265.86 2.21L265.86 11.48L272.68 11.48L272.68 10.47L266.91 10.47L266.91 7.35L272.06 7.35L272.06 6.33L266.91 6.33L266.91 3.22ZM280.98 10.05L280.98 11.48L282.34 11.48L282.34 10.05ZM305.35 2.21L304.04 2.21L300.10 11.48L301.27 11.48L302.40 8.79L306.99 8.79L308.13 11.48L309.29 11.48ZM302.81 7.83L304.70 3.30L306.59 7.83ZM321.26 10.57C319.00 10.57 317.74 8.93 317.74 6.85C317.74 4.76 319.00 3.12 321.26 3.12C322.78 3.12 323.79 3.85 324.27 4.98L325.37 4.98C324.79 3.29 323.27 2.10 321.17 2.10C318.39 2.10 316.69 4.21 316.69 6.85C316.69 9.48 318.39 11.59 321.17 11.59C323.27 11.59 324.79 10.40 325.37 8.71L324.27 8.71C323.79 9.84 322.78 10.57 321.26 10.57ZM337.85 10.57C335.59 10.57 334.33 8.93 334.33 6.85C334.33 4.76 335.59 3.12 337.85 3.12C339.37 3.12 340.38 3.85 340.86 4.98L341.96 4.98C341.38 3.29 339.86 2.10 337.76 2.10C334.98 2.10 333.28 4.21 333.28 6.85C333.28 9.48 334.98 11.59 337.76 11.59C339.86 11.59 341.38 10.40 341.96 8.71L340.86 8.71C340.38 9.84 339.37 10.57 337.85 10.57ZM357.35 3.22L357.35 2.21L350.53 2.21L350.53 11.48L357.35 11.48L357.35 10.47L351.58 10.47L351.58 7.35L356.73 7.35L356.73 6.33L351.58 6.33L351.58 3.22ZM366.04 2.21L366.04 11.48L372.15 11.48L372.15 10.47L367.09 10.47L367.09 2.21ZM387.32 3.22L387.32 2.21L380.51 2.21L380.51 11.48L387.32 11.48L387.32 10.47L381.56 10.47L381.56 7.35L386.71 7.35L386.71 6.33L381.56 6.33L381.56 3.22ZM397.07 7.92L400.29 7.92L402.53 11.48L403.77 11.48L401.34 7.74C402.37 7.50 403.58 6.90 403.58 5.11C403.58 3.35 402.36 2.21 400.46 2.21L396.02 2.21L396.02 11.48L397.07 11.48ZM397.07 3.21L400.33 3.21C401.65 3.21 402.53 3.93 402.53 5.11C402.53 6.55 401.27 6.93 400.27 6.93L397.07 6.93ZM416.54 2.21L415.23 2.21L411.29 11.48L412.45 11.48L413.59 8.79L418.18 8.79L419.31 11.48L420.48 11.48ZM413.99 7.83L415.88 3.30L417.77 7.83ZM434.41 2.21L426.89 2.21L426.89 3.22L430.12 3.22L430.12 11.48L431.17 11.48L431.17 3.22L434.41 3.22ZM449.55 3.22L449.55 2.21L442.74 2.21L442.74 11.48L449.55 11.48L449.55 10.47L443.79 10.47L443.79 7.35L448.94 7.35L448.94 6.33L443.79 6.33L443.79 3.22ZM457.86 10.05L457.86 11.48L459.21 11.48L459.21 10.05Z"></path></g></svg>